HIERARCHY
ROOT SpineBase
{
  OFFSET 0.000000 0.000000 0.000000
  CHANNELS 6 Xposition Yposition Zposition Zrotation Xrotation Yrotation
  JOINT SpineMid
  {
    OFFSET -0.000000 30.535928 0.000000
    CHANNELS 3 Zrotation Xrotation Yrotation
    JOINT SpineShoulder
    {
      OFFSET -0.045171 22.557054 -0.769044
      CHANNELS 3 Zrotation Xrotation Yrotation
      JOINT Neck
      {
        OFFSET -0.059248 7.439447 -0.584849
        CHANNELS 3 Zrotation Xrotation Yrotation
        JOINT Head
        {
          OFFSET -3.720759 13.574575 0.984995
          CHANNELS 3 Zrotation Xrotation Yrotation
          End Site
          {
            OFFSET 0 0 0
          }
        }
      }
      JOINT ShoulderLeft
      {
        OFFSET -12.979969 -3.551614 13.237940
        CHANNELS 3 Zrotation Xrotation Yrotation
        JOINT ElbowLeft
        {
          OFFSET -1.500431 -29.010407 0.709325
          CHANNELS 3 Zrotation Xrotation Yrotation
          JOINT WristLeft
          {
            OFFSET 1.508325 -22.136357 -7.779538
            CHANNELS 3 Zrotation Xrotation Yrotation
            JOINT HandLeft
            {
              OFFSET 1.108652 -4.717867 -2.651432
              CHANNELS 3 Zrotation Xrotation Yrotation
              JOINT HandTipLeft
              {
                OFFSET 0.876113 -6.383567 -1.106280
                CHANNELS 3 Zrotation Xrotation Yrotation
                End Site
                {
                  OFFSET 0 0 0
                }
              }
              JOINT ThumbLeft
              {
                OFFSET 2.177702 1.353411 -4.105532
                CHANNELS 3 Zrotation Xrotation Yrotation
                End Site
                {
                  OFFSET 0 0 0
                }
              }
            }
          }
        }
      }
      JOINT ShoulderRight
      {
        OFFSET 11.224371 -2.448721 -12.579717
        CHANNELS 3 Zrotation Xrotation Yrotation
        JOINT ElbowRight
        {
          OFFSET 4.661754 -22.447068 -6.107894
          CHANNELS 3 Zrotation Xrotation Yrotation
          JOINT WristRight
          {
            OFFSET -6.772763 -20.847377 -2.933577
            CHANNELS 3 Zrotation Xrotation Yrotation
            JOINT HandRight
            {
              OFFSET -2.571146 -3.941144 2.630533
              CHANNELS 3 Zrotation Xrotation Yrotation
              JOINT HandTipRight
              {
                OFFSET -3.025001 -6.368987 -0.688844
                CHANNELS 3 Zrotation Xrotation Yrotation
                End Site
                {
                  OFFSET 0 0 0
                }
              }
              JOINT ThumbRight
              {
                OFFSET 3.929110 -1.018772 -1.108575
                CHANNELS 3 Zrotation Xrotation Yrotation
                End Site
                {
                  OFFSET 0 0 0
                }
              }
            }
          }
        }
      }
    }
  }
  JOINT HipLeft
  {
    OFFSET -5.973532 -0.043519 1.570600
    CHANNELS 3 Zrotation Xrotation Yrotation
    JOINT KneeLeft
    {
      OFFSET 5.818963 -35.151299 7.031284
      CHANNELS 3 Zrotation Xrotation Yrotation
      JOINT AnkleLeft
      {
        OFFSET 12.380821 -33.681947 4.964887
        CHANNELS 3 Zrotation Xrotation Yrotation
        JOINT FootLeft
        {
          OFFSET -1.657989 -8.531327 -2.012374
          CHANNELS 3 Zrotation Xrotation Yrotation
          End Site
          {
            OFFSET 0 0 0
          }
        }
      }
    }
  }
  JOINT HipRight
  {
    OFFSET 4.950688 1.621812 -8.529431
    CHANNELS 3 Zrotation Xrotation Yrotation
    JOINT KneeRight
    {
      OFFSET 8.311044 -33.655895 -4.995158
      CHANNELS 3 Zrotation Xrotation Yrotation
      JOINT AnkleRight
      {
        OFFSET 10.625297 -36.170593 5.770249
        CHANNELS 3 Zrotation Xrotation Yrotation
        JOINT FootRight
        {
          OFFSET -8.127023 -4.106560 -10.503404
          CHANNELS 3 Zrotation Xrotation Yrotation
          End Site
          {
            OFFSET 0 0 0
          }
        }
      }
    }
  }
}
MOTION
Frames: 5
Frame Time: 0.033333
53.429175 78.034262 330.519155 0.000000 0.000000 42.755050 -0.000000 0.000000 -42.755050 -0.000000 0.000000 0.000000 -0.000000 0.000000 0.000000 0.000000 0.000000 0.000000 -0.000000 0.000000 0.000000 -0.000000 0.000000 0.000000 -0.000000 0.000000 0.000000 -0.000000 0.000000 0.000000 0.000000 0.000000 0.000000 0.000000 0.000000 0.000000 -0.000000 0.000000 0.000000 -0.000000 0.000000 0.000000 -0.000000 0.000000 0.000000 -0.000000 0.000000 0.000000 0.000000 0.000000 0.000000 0.000000 0.000000 0.000000 -0.000000 0.000000 -42.755050 -0.000000 0.000000 0.000000 -0.000000 0.000000 0.000000 0.000000 0.000000 0.000000 -0.000000 0.000000 -42.755050 -0.000000 0.000000 0.000000 -0.000000 0.000000 0.000000 0.000000 0.000000 0.000000
53.504169 78.049438 330.522807 -0.001416 -0.012510 42.319155 0.009469 0.008297 -42.319156 -0.000000 0.000000 0.000000 -0.546962 -0.831735 -0.192615 0.000000 0.000000 0.000000 -0.000000 0.000000 0.000000 -0.000000 0.000000 0.000000 -0.000000 0.000000 0.000000 1.489861 -0.087573 -0.268645 0.000000 0.000000 0.000000 0.000000 0.000000 0.000000 -0.000000 0.000000 0.000000 -0.000000 0.000000 0.000000 -1.263614 -2.385798 0.672736 -0.651263 3.457767 -0.918563 0.000000 0.000000 0.000000 0.000000 0.000000 0.000000 0.009469 0.008297 -42.319156 -0.000000 0.000000 0.000000 -1.036649 -0.538607 0.344109 0.000000 0.000000 0.000000 0.009469 0.008297 -42.319156 -0.000000 0.000000 0.000000 -0.000000 0.000000 0.000000 0.000000 0.000000 0.000000
53.584657 78.063363 330.532008 0.002558 -0.022613 41.842910 0.013179 0.018552 -41.842911 -0.000000 0.000000 0.000000 -1.029478 -1.585333 -0.375405 0.000000 0.000000 0.000000 -0.000000 0.000000 0.000000 -0.000000 0.000000 0.000000 -0.000000 0.000000 0.000000 2.618835 -0.222486 -0.478034 0.000000 0.000000 0.000000 0.000000 0.000000 0.000000 0.828005 -0.721036 -0.369918 -0.955750 2.110109 -0.053063 -1.897661 -5.065249 1.313572 -1.343415 5.445088 -1.240839 0.000000 0.000000 0.000000 0.000000 0.000000 0.000000 0.013179 0.018552 -41.842911 -0.000000 0.000000 0.000000 -1.900659 -0.984962 0.622703 0.000000 0.000000 0.000000 0.013179 0.018552 -41.842911 -0.000000 0.000000 0.000000 -0.000000 0.000000 0.000000 0.000000 0.000000 0.000000
53.670641 78.076037 330.546760 0.011941 -0.030294 41.326473 0.011037 0.030635 -41.326473 -0.000000 0.000000 0.000000 -1.447723 -2.262237 -0.546356 0.000000 0.000000 0.000000 -0.000000 0.000000 0.000000 -0.000000 0.000000 0.000000 -0.000000 0.000000 0.000000 3.409825 -0.400125 -0.631901 0.000000 0.000000 0.000000 0.000000 0.000000 0.000000 1.152438 -1.025537 -0.516439 -1.406319 2.916450 -0.039502 -2.121220 -5.814303 1.335949 -2.178901 6.087289 -1.103719 0.000000 0.000000 0.000000 0.000000 0.000000 0.000000 0.011037 0.030635 -41.326473 -0.547869 -0.553329 -0.287099 -2.038045 -0.791882 1.145568 0.000000 0.000000 0.000000 0.011037 0.030635 -41.326473 -0.000000 0.000000 0.000000 -0.000000 0.000000 0.000000 0.000000 0.000000 0.000000
53.762120 78.087459 330.567061 0.026753 -0.035541 40.770028 0.002949 0.044387 -40.770021 -0.000000 0.000000 0.000000 -1.801867 -2.863910 -0.703744 0.000000 0.000000 0.000000 -0.000000 0.000000 0.000000 -0.000000 0.000000 0.000000 0.839416 -0.776420 -0.649873 3.039516 0.192052 -0.126204 0.000000 0.000000 0.000000 0.000000 0.000000 0.000000 1.417788 -1.292246 -0.638507 -1.837660 3.558416 0.000274 -1.929367 -5.501042 1.026384 -3.179273 5.509538 -0.612960 0.000000 0.000000 0.000000 0.000000 0.000000 0.000000 0.002949 0.044387 -40.770021 -0.714533 -0.711854 -0.371944 -2.383207 -0.888556 1.396687 0.000000 0.000000 0.000000 0.002949 0.044387 -40.770021 -0.000000 0.000000 0.000000 0.173700 0.262704 -0.961798 0.000000 0.000000 0.000000
